<svg xmlns="http://www.w3.org/2000/svg" viewBox="0 0 122.85 136.26"><defs><style>.cls-1{fill:#010101;}.cls-2{fill:#00a7b4;}</style></defs><g id="Layer_2" data-name="Layer 2"><g id="Layer_1-2" data-name="Layer 1"><path class="cls-1" d="M49.84,19.47,57.38,15a8.22,8.22,0,0,1,8.3-.07l23.7,13.6,12.51-7.67L74.47,3.15A23.93,23.93,0,0,0,51.2,2.89L26.3,16.39a4.9,4.9,0,0,0-.24,8.48L78.52,57.23a12.87,12.87,0,0,0,13.62-.07l14.4-9.1a1.54,1.54,0,0,1,2.37,1.26l1.31,43.89a4,4,0,0,1-1.94,3.55L94.61,105,93.55,77.8a4.68,4.68,0,0,0-7.2-3.75L81.29,77.3a4.66,4.66,0,0,0-2.14,4l1,44.57,41.67-25A2.21,2.21,0,0,0,122.85,99l-1.14-56.67a18.85,18.85,0,0,0-2.86-9.6h0a6.11,6.11,0,0,0-8.5-1.89L87.54,44.75,49.86,23.31A2.23,2.23,0,0,1,49.84,19.47Z"/><path class="cls-2" d="M4.34,89.56Q21.5,99.81,38.9,109.65a3.1,3.1,0,0,0,4.57-2.78c0-2.68,0-5.37-.07-8a3.64,3.64,0,0,0-1.79-3.06c-12.36-7.15-24.77-14.72-37-22a9.67,9.67,0,0,1-4.37-8C0,53.66.13,41.13.89,29.24c.1-1.49,1.8-3,3.33-2C22.1,38.44,41,50.74,59.74,61.08a6.2,6.2,0,0,1,2.93,5.52c-.26,6.2,0,12.39.31,18.59Q52.3,79.22,41.75,73c0-2.68-.06-5.36,0-8a1.81,1.81,0,0,0-.86-1.57Q32.05,58.07,23.32,52.6a1.38,1.38,0,0,0-2.15,1.12c-.35,5.25-.49,10.52-.57,15.79a1.81,1.81,0,0,0,.85,1.56Q40.38,82.61,59.71,93.46a8.23,8.23,0,0,1,4.06,6.74c.49,10,.81,20,.35,30.09a7.15,7.15,0,0,1-.51,3.42,4.19,4.19,0,0,1-1.81,2,4.74,4.74,0,0,1-2.64.51,7.49,7.49,0,0,1-3.11-1c-17.51-9.77-35.18-19.3-52.39-29.48a8,8,0,0,1-3.66-7c.06-3,.24-5.94.4-8.9a1.48,1.48,0,0,1,2.22-1.38Z"/></g></g></svg>