<?xml version="1.0" standalone="no"?><!DOCTYPE svg PUBLIC "-//W3C//DTD SVG 1.1//EN" "http://www.w3.org/Graphics/SVG/1.1/DTD/svg11.dtd"><svg t="1678265237655" class="icon" viewBox="0 0 1024 1024" version="1.1" xmlns="http://www.w3.org/2000/svg" p-id="10877" xmlns:xlink="http://www.w3.org/1999/xlink" width="200" height="200"><path d="M512 0.992q-104 0-199.008 40.512T149.984 150.496 40.992 313.504 0 512.512t40.992 199.008 108.992 163.008 163.008 108.992T512 1024.032t199.008-40.512 163.008-108.992 108.992-163.008T1024 512.512t-40.992-199.008-108.992-163.008-163.008-108.992T512 0.992z m116.992 756q-10.016 11.008-24.992 11.488t-26.016-9.504l-235.008-220.992q-12-11.008-12-26.496t11.008-26.496l236-220q11.008-11.008 26.016-10.496t24.992 11.488 9.504 26.016-11.488 24.992L420 512l207.008 194.016q11.008 10.016 11.488 24.992t-9.504 26.016z" p-id="10878" data-spm-anchor-id="a313x.7781069.0.i5" class="selected" fill="#ffffff"></path></svg>