<?xml version="1.0" standalone="no"?><!DOCTYPE svg PUBLIC "-//W3C//DTD SVG 1.1//EN" "http://www.w3.org/Graphics/SVG/1.1/DTD/svg11.dtd"><svg t="1678265313376" class="icon" viewBox="0 0 1024 1024" version="1.1" xmlns="http://www.w3.org/2000/svg" p-id="3116" xmlns:xlink="http://www.w3.org/1999/xlink" width="200" height="200"><path d="M512 0.992q-104 0-199.008 40.512T149.984 150.496 40.992 313.504 0 512.512t40.992 199.008 108.992 163.008 163.008 108.992T512 1024.032t199.008-40.512 163.008-108.992 108.992-163.008T1024 512.512t-40.992-199.008-108.992-163.008-163.008-108.992T512 0.992z m168.992 537.024l-235.008 220q-11.008 11.008-26.016 10.496t-24.992-11.488-9.504-26.016 11.488-24.992L603.968 512l-207.008-195.008q-11.008-10.016-11.488-24.992t9.504-26.016 24.992-11.488 26.016 9.504l235.008 220.992q12 11.008 12 26.496t-12 26.496z" p-id="3117" fill="#ffffff"></path></svg>